<?xml version="1.0" encoding="utf-8"?>
<!-- Generator: Adobe Illustrator 20.1.0, SVG Export Plug-In . SVG Version: 6.00 Build 0)  -->
<svg version="1.1" id="Layer_1" xmlns="http://www.w3.org/2000/svg" xmlns:xlink="http://www.w3.org/1999/xlink" x="0px" y="0px"
	 viewBox="0 0 500 500" style="enable-background:new 0 0 500 500;" xml:space="preserve">
<style type="text/css">
	.st0{fill:#3374BA;}
	.st1{fill:url(#SVGID_1_);}
	.st2{fill:url(#SVGID_2_);}
	.st3{opacity:0.56;fill:#212120;enable-background:new    ;}
	.st4{fill:#F4F5F5;}
	.st5{fill:url(#SVGID_3_);}
	.st6{fill:url(#SVGID_4_);}
	.st7{fill:url(#SVGID_5_);}
	.st8{fill:url(#SVGID_6_);}
	.st9{fill:url(#SVGID_7_);}
	.st10{fill:url(#SVGID_8_);}
	.st11{fill:url(#SVGID_9_);}
	.st12{fill:url(#SVGID_10_);}
	.st13{fill:url(#SVGID_11_);}
	.st14{fill:url(#SVGID_12_);}
	.st15{fill:url(#SVGID_13_);}
	.st16{fill:url(#SVGID_14_);}
	.st17{opacity:0.2;fill:#676767;enable-background:new    ;}
	.st18{fill:url(#SVGID_15_);}
	.st19{fill:url(#SVGID_16_);}
	.st20{opacity:0.2;fill:#747575;enable-background:new    ;}
	.st21{fill:url(#SVGID_17_);}
	.st22{fill:url(#SVGID_18_);}
	.st23{fill:url(#SVGID_19_);}
	.st24{fill:url(#SVGID_20_);}
	.st25{fill:#2A66B0;}
	.st26{fill:#15499D;}
	.st27{fill:#3374B9;}
	.st28{fill:#FFFFFF;}
	.st29{fill:#4CAE4E;}
	.st30{fill:#E7E63E;}
</style>
<rect class="st0" width="500" height="500"/>
<g>
	<g id="icon_1_">
		<g>
			
				<linearGradient id="SVGID_1_" gradientUnits="userSpaceOnUse" x1="-444" y1="-4311.1943" x2="-444" y2="-4382.4136" gradientTransform="matrix(1 0 0 -1 694 -4124.0332)">
				<stop  offset="0" style="stop-color:#616262"/>
				<stop  offset="1" style="stop-color:#BCBCBC"/>
			</linearGradient>
			<polygon class="st1" points="84.5,227.2 125.9,227.2 146.6,227.2 167.2,227.2 297.6,227.2 415.5,227.2 415.5,210.7 84.5,210.7 
							"/>
			
				<linearGradient id="SVGID_2_" gradientUnits="userSpaceOnUse" x1="-444" y1="-4311.1943" x2="-444" y2="-4382.4136" gradientTransform="matrix(1 0 0 -1 694 -4124.0332)">
				<stop  offset="0" style="stop-color:#616262"/>
				<stop  offset="1" style="stop-color:#BCBCBC"/>
			</linearGradient>
			<polygon class="st2" points="167.2,206.6 146.6,206.6 125.9,206.6 84.5,206.6 84.5,210.7 415.5,210.7 415.5,206.6 275.9,206.6 
							"/>
			<polygon class="st3" points="167.2,206.6 146.6,206.6 125.9,206.6 84.5,206.6 84.5,210.7 415.5,210.7 415.5,206.6 275.9,206.6 
							"/>
			<path class="st3" d="M374.1,454.8H211.7h-85.9c-22.8,0-41.4-20.7-41.4-45.5v4.1c0,24.8,18.6,45.5,41.4,45.5h248.3
				c22.8,0,41.4-20.7,41.4-45.5v-4.1C415.5,434.1,396.9,454.8,374.1,454.8z"/>
			<path class="st4" d="M374.1,41.1H125.9c-22.8,0-41.4,14.5-41.4,33.1v4.1c0-18.6,18.6-33.1,41.4-33.1h248.3
				c22.8,0,41.4,14.5,41.4,33.1v-4.1C415.5,55.5,396.9,41.1,374.1,41.1z"/>
			<path class="st4" d="M374.1,45.2H125.9c-22.8,0-41.4,14.5-41.4,33.1v128.3h41.4V92.8c0-6.2,4.1-10.3,10.3-10.3h10.3h10.3
				c6.2,0,10.3,4.1,10.3,10.3v9.3l108.6,104.5h139.6V78.3C415.5,60.7,396.9,45.2,374.1,45.2z M260.3,123.8
				c-6.2,0-10.3-4.1-10.3-10.3s4.1-10.3,10.3-10.3s10.3,4.1,10.3,10.3C270.7,118.6,265.5,123.8,260.3,123.8z M353.4,123.8
				L353.4,123.8v41.4h-62.1v-62.1h41.4c0-11.4,9.3-20.7,20.7-20.7c11.4,0,20.7,9.3,20.7,20.7S364.8,123.8,353.4,123.8z"/>
			
				<linearGradient id="SVGID_3_" gradientUnits="userSpaceOnUse" x1="-536.0576" y1="-4168.7539" x2="-111.5675" y2="-4593.2437" gradientTransform="matrix(1 0 0 -1 694 -4124.0332)">
				<stop  offset="0" style="stop-color:#EDECED"/>
				<stop  offset="1" style="stop-color:#BCBCBC"/>
			</linearGradient>
			<path class="st5" d="M374.1,45.2H125.9c-22.8,0-41.4,14.5-41.4,33.1v128.3h41.4V92.8c0-6.2,4.1-10.3,10.3-10.3h10.3h10.3
				c6.2,0,10.3,4.1,10.3,10.3v9.3l108.6,104.5h139.6V78.3C415.5,60.7,396.9,45.2,374.1,45.2z M260.3,123.8
				c-6.2,0-10.3-4.1-10.3-10.3s4.1-10.3,10.3-10.3s10.3,4.1,10.3,10.3C270.7,118.6,265.5,123.8,260.3,123.8z M353.4,123.8
				L353.4,123.8v41.4h-62.1v-62.1h41.4c0-11.4,9.3-20.7,20.7-20.7c11.4,0,20.7,9.3,20.7,20.7S364.8,123.8,353.4,123.8z"/>
			
				<linearGradient id="SVGID_4_" gradientUnits="userSpaceOnUse" x1="-656.6531" y1="-4285.5068" x2="-228.2738" y2="-4713.8862" gradientTransform="matrix(1 0 0 -1 694 -4124.0332)">
				<stop  offset="0" style="stop-color:#EDECED"/>
				<stop  offset="1" style="stop-color:#BCBCBC"/>
			</linearGradient>
			<rect x="84.5" y="227.2" class="st6" width="41.4" height="4.1"/>
			
				<linearGradient id="SVGID_5_" gradientUnits="userSpaceOnUse" x1="-656.6531" y1="-4285.5068" x2="-228.2738" y2="-4713.8862" gradientTransform="matrix(1 0 0 -1 694 -4124.0332)">
				<stop  offset="0" style="stop-color:#EDECED"/>
				<stop  offset="1" style="stop-color:#BCBCBC"/>
			</linearGradient>
			<rect x="84.5" y="227.2" class="st7" width="41.4" height="4.1"/>
			
				<linearGradient id="SVGID_6_" gradientUnits="userSpaceOnUse" x1="-529.9406" y1="-4158.7939" x2="-101.5612" y2="-4587.1733" gradientTransform="matrix(1 0 0 -1 694 -4124.0332)">
				<stop  offset="0" style="stop-color:#EDECED"/>
				<stop  offset="1" style="stop-color:#BCBCBC"/>
			</linearGradient>
			<polygon class="st8" points="301.7,231.4 415.5,231.4 415.5,227.2 297.6,227.2 			"/>
			
				<linearGradient id="SVGID_7_" gradientUnits="userSpaceOnUse" x1="-529.9406" y1="-4158.7939" x2="-101.5612" y2="-4587.1733" gradientTransform="matrix(1 0 0 -1 694 -4124.0332)">
				<stop  offset="0" style="stop-color:#EDECED"/>
				<stop  offset="1" style="stop-color:#BCBCBC"/>
			</linearGradient>
			<polygon class="st9" points="301.7,231.4 415.5,231.4 415.5,227.2 297.6,227.2 			"/>
			<path class="st3" d="M125.9,454.8h85.9l-71.4-79.6h-4.1c-6.2,0-10.3-4.1-10.3-10.3v-3.1v-3.1v-24.8V231.4H84.5v177.9
				C84.5,434.1,103.1,454.8,125.9,454.8z"/>
			
				<linearGradient id="SVGID_8_" gradientUnits="userSpaceOnUse" x1="-707.1625" y1="-4336.0171" x2="-278.7843" y2="-4764.3955" gradientTransform="matrix(1 0 0 -1 694 -4124.0332)">
				<stop  offset="0" style="stop-color:#EDECED"/>
				<stop  offset="1" style="stop-color:#BCBCBC"/>
			</linearGradient>
			<path class="st10" d="M125.9,454.8h85.9l-71.4-79.6h-4.1c-6.2,0-10.3-4.1-10.3-10.3v-3.1v-3.1v-24.8V231.4H84.5v177.9
				C84.5,434.1,103.1,454.8,125.9,454.8z"/>
			
				<linearGradient id="SVGID_9_" gradientUnits="userSpaceOnUse" x1="-707.1625" y1="-4336.0171" x2="-278.7843" y2="-4764.3955" gradientTransform="matrix(1 0 0 -1 694 -4124.0332)">
				<stop  offset="0" style="stop-color:#EDECED"/>
				<stop  offset="1" style="stop-color:#BCBCBC"/>
			</linearGradient>
			<path class="st11" d="M125.9,454.8h85.9l-71.4-79.6h-4.1c-6.2,0-10.3-4.1-10.3-10.3v-3.1v-3.1v-24.8V231.4H84.5v177.9
				C84.5,434.1,103.1,454.8,125.9,454.8z"/>
			<polygon class="st3" points="415.5,341 415.5,231.4 301.7,231.4 			"/>
			
				<linearGradient id="SVGID_10_" gradientUnits="userSpaceOnUse" x1="-530.975" y1="-4159.8286" x2="-102.5957" y2="-4588.208" gradientTransform="matrix(1 0 0 -1 694 -4124.0332)">
				<stop  offset="0" style="stop-color:#EDECED"/>
				<stop  offset="1" style="stop-color:#BCBCBC"/>
			</linearGradient>
			<polygon class="st12" points="415.5,341 415.5,231.4 301.7,231.4 			"/>
			
				<linearGradient id="SVGID_11_" gradientUnits="userSpaceOnUse" x1="-530.975" y1="-4159.8286" x2="-102.5957" y2="-4588.208" gradientTransform="matrix(1 0 0 -1 694 -4124.0332)">
				<stop  offset="0" style="stop-color:#EDECED"/>
				<stop  offset="1" style="stop-color:#BCBCBC"/>
			</linearGradient>
			<polygon class="st13" points="415.5,341 415.5,231.4 301.7,231.4 			"/>
			<path class="st3" d="M136.2,372.1c-6.2,0-10.3-4.1-10.3-10.3v3.1c0,6.2,4.1,10.3,10.3,10.3h4.1l-2.1-3.1H136.2z"/>
			
				<linearGradient id="SVGID_12_" gradientUnits="userSpaceOnUse" x1="-713.9318" y1="-4342.7866" x2="-285.5535" y2="-4771.1646" gradientTransform="matrix(1 0 0 -1 694 -4124.0332)">
				<stop  offset="0" style="stop-color:#EDECED"/>
				<stop  offset="1" style="stop-color:#BCBCBC"/>
			</linearGradient>
			<path class="st14" d="M136.2,372.1c-6.2,0-10.3-4.1-10.3-10.3v3.1c0,6.2,4.1,10.3,10.3,10.3h4.1l-2.1-3.1H136.2z"/>
			
				<linearGradient id="SVGID_13_" gradientUnits="userSpaceOnUse" x1="-713.9318" y1="-4342.7866" x2="-285.5535" y2="-4771.1646" gradientTransform="matrix(1 0 0 -1 694 -4124.0332)">
				<stop  offset="0" style="stop-color:#EDECED"/>
				<stop  offset="1" style="stop-color:#BCBCBC"/>
			</linearGradient>
			<path class="st15" d="M136.2,372.1c-6.2,0-10.3-4.1-10.3-10.3v3.1c0,6.2,4.1,10.3,10.3,10.3h4.1l-2.1-3.1H136.2z"/>
			<path class="st3" d="M136.2,372.1c-6.2,0-10.3-4.1-10.3-10.3v3.1c0,6.2,4.1,10.3,10.3,10.3h4.1l-2.1-3.1H136.2z"/>
			<polygon class="st4" points="275.9,206.6 167.2,102.1 167.2,206.6 			"/>
			
				<linearGradient id="SVGID_14_" gradientUnits="userSpaceOnUse" x1="-585.1691" y1="-4217.8652" x2="-160.6791" y2="-4642.3555" gradientTransform="matrix(1 0 0 -1 694 -4124.0332)">
				<stop  offset="0" style="stop-color:#EDECED"/>
				<stop  offset="1" style="stop-color:#BCBCBC"/>
			</linearGradient>
			<polygon class="st16" points="275.9,206.6 167.2,102.1 167.2,206.6 			"/>
			<polygon class="st17" points="275.9,206.6 167.2,102.1 167.2,206.6 			"/>
			
				<linearGradient id="SVGID_15_" gradientUnits="userSpaceOnUse" x1="-593.0382" y1="-4221.8916" x2="-164.6589" y2="-4650.271" gradientTransform="matrix(1 0 0 -1 694 -4124.0332)">
				<stop  offset="0" style="stop-color:#EDECED"/>
				<stop  offset="1" style="stop-color:#BCBCBC"/>
			</linearGradient>
			<polygon class="st18" points="301.7,231.4 297.6,227.2 167.2,227.2 167.2,231.4 			"/>
			
				<linearGradient id="SVGID_16_" gradientUnits="userSpaceOnUse" x1="-593.0382" y1="-4221.8916" x2="-164.6589" y2="-4650.271" gradientTransform="matrix(1 0 0 -1 694 -4124.0332)">
				<stop  offset="0" style="stop-color:#EDECED"/>
				<stop  offset="1" style="stop-color:#BCBCBC"/>
			</linearGradient>
			<polygon class="st19" points="301.7,231.4 297.6,227.2 167.2,227.2 167.2,231.4 			"/>
			<polygon class="st20" points="301.7,231.4 297.6,227.2 167.2,227.2 167.2,231.4 			"/>
			<path class="st3" d="M167.2,231.4v102.4v27.9v3.1c0,6.2-4.1,10.3-10.3,10.3h-16.6l71.4,79.6h162.4c22.8,0,41.4-20.7,41.4-45.5
				V341L301.7,231.4H167.2z"/>
			
				<linearGradient id="SVGID_17_" gradientUnits="userSpaceOnUse" x1="-636.7411" y1="-4265.5947" x2="-208.3618" y2="-4693.9741" gradientTransform="matrix(1 0 0 -1 694 -4124.0332)">
				<stop  offset="0" style="stop-color:#EDECED"/>
				<stop  offset="1" style="stop-color:#BCBCBC"/>
			</linearGradient>
			<path class="st21" d="M167.2,231.4v102.4v27.9v3.1c0,6.2-4.1,10.3-10.3,10.3h-16.6l71.4,79.6h162.4c22.8,0,41.4-20.7,41.4-45.5
				V341L301.7,231.4H167.2z"/>
			
				<linearGradient id="SVGID_18_" gradientUnits="userSpaceOnUse" x1="-636.7411" y1="-4265.5947" x2="-208.3618" y2="-4693.9741" gradientTransform="matrix(1 0 0 -1 694 -4124.0332)">
				<stop  offset="0" style="stop-color:#EDECED"/>
				<stop  offset="1" style="stop-color:#BCBCBC"/>
			</linearGradient>
			<path class="st22" d="M167.2,231.4v102.4v27.9v3.1c0,6.2-4.1,10.3-10.3,10.3h-16.6l71.4,79.6h162.4c22.8,0,41.4-20.7,41.4-45.5
				V341L301.7,231.4H167.2z"/>
			<path class="st20" d="M167.2,231.4v102.4v27.9v3.1c0,6.2-4.1,10.3-10.3,10.3h-16.6l71.4,79.6h162.4c22.8,0,41.4-20.7,41.4-45.5
				V341L301.7,231.4H167.2z"/>
			<path class="st3" d="M156.9,372.1h-10.3h-8.3l3.1,3.1h15.5c6.2,0,10.3-4.1,10.3-10.3v-3.1C167.2,367.9,163.1,372.1,156.9,372.1z"
				/>
			
				<linearGradient id="SVGID_19_" gradientUnits="userSpaceOnUse" x1="-701.6489" y1="-4330.5024" x2="-273.2697" y2="-4758.8818" gradientTransform="matrix(1 0 0 -1 694 -4124.0332)">
				<stop  offset="0" style="stop-color:#EDECED"/>
				<stop  offset="1" style="stop-color:#BCBCBC"/>
			</linearGradient>
			<path class="st23" d="M156.9,372.1h-10.3h-8.3l3.1,3.1h15.5c6.2,0,10.3-4.1,10.3-10.3v-3.1C167.2,367.9,163.1,372.1,156.9,372.1z
				"/>
			
				<linearGradient id="SVGID_20_" gradientUnits="userSpaceOnUse" x1="-701.6489" y1="-4330.5024" x2="-273.2697" y2="-4758.8818" gradientTransform="matrix(1 0 0 -1 694 -4124.0332)">
				<stop  offset="0" style="stop-color:#EDECED"/>
				<stop  offset="1" style="stop-color:#BCBCBC"/>
			</linearGradient>
			<path class="st24" d="M156.9,372.1h-10.3h-8.3l3.1,3.1h15.5c6.2,0,10.3-4.1,10.3-10.3v-3.1C167.2,367.9,163.1,372.1,156.9,372.1z
				"/>
			<path class="st3" d="M156.9,372.1h-10.3h-8.3l3.1,3.1h15.5c6.2,0,10.3-4.1,10.3-10.3v-3.1C167.2,367.9,163.1,372.1,156.9,372.1z"
				/>
			<path class="st20" d="M156.9,372.1h-10.3h-8.3l3.1,3.1h15.5c6.2,0,10.3-4.1,10.3-10.3v-3.1C167.2,367.9,163.1,372.1,156.9,372.1z
				"/>
			<path class="st25" d="M146.6,82.4h-10.3c-6.2,0-10.3,4.1-10.3,10.3v113.8h20.7V82.4z"/>
			<path class="st26" d="M167.2,206.6V102.1v-9.3c0-6.2-4.1-10.3-10.3-10.3h-10.3v124.1H167.2z"/>
			<path class="st26" d="M156.9,372.1c6.2,0,10.3-4.1,10.3-10.3v-27.9V231.4v-4.1h-20.7v144.8H156.9z"/>
			<path class="st27" d="M125.9,333.8v24.8v3.1c0,6.2,4.1,10.3,10.3,10.3h2.1h8.3V227.2h-20.7v4.1V333.8z"/>
			<path class="st28" d="M332.8,103.1h-41.4v62.1h62.1v-41.4C342.1,123.8,332.8,114.5,332.8,103.1z"/>
			<circle class="st29" cx="260.3" cy="113.5" r="10.3"/>
			<path class="st30" d="M353.4,82.4c-11.4,0-20.7,9.3-20.7,20.7s9.3,20.7,20.7,20.7l0,0c11.4,0,20.7-9.3,20.7-20.7
				S364.8,82.4,353.4,82.4z"/>
		</g>
	</g>
</g>
<g>
</g>
<g>
</g>
<g>
</g>
<g>
</g>
<g>
</g>
<g>
</g>
<g>
</g>
<g>
</g>
<g>
</g>
<g>
</g>
<g>
</g>
<g>
</g>
<g>
</g>
<g>
</g>
<g>
</g>
</svg>
