<?xml version="1.0" encoding="utf-8"?>
<!-- Generator: Adobe Illustrator 20.1.0, SVG Export Plug-In . SVG Version: 6.00 Build 0)  -->
<svg version="1.1" id="Layer_1" xmlns="http://www.w3.org/2000/svg" xmlns:xlink="http://www.w3.org/1999/xlink" x="0px" y="0px"
	 viewBox="0 0 500 500" style="enable-background:new 0 0 500 500;" xml:space="preserve">
<style type="text/css">
	.st0{fill:#00783E;}
	.st1{clip-path:url(#SVGID_2_);}
	.st2{clip-path:url(#SVGID_4_);fill:#FFFFFF;}
</style>
<rect class="st0" width="500" height="500"/>
<g id="vertical_bw">
	<g>
		<defs>
			<rect id="SVGID_1_" x="51" y="33.1" width="398" height="433.7"/>
		</defs>
		<clipPath id="SVGID_2_">
			<use xlink:href="#SVGID_1_"  style="overflow:visible;"/>
		</clipPath>
		<g class="st1">
			<defs>
				<rect id="SVGID_3_" x="51" y="33.1" width="398" height="433.7"/>
			</defs>
			<clipPath id="SVGID_4_">
				<use xlink:href="#SVGID_3_"  style="overflow:visible;"/>
			</clipPath>
			<path class="st2" d="M84.9,341.1l-4.6-1.4c-3.1-1-8-2.6-8-6.6c0-3.8,4.4-5.8,7.7-5.8c4.4,0,8.6,1.8,11.9,4.6l7.1-13.9
				c-6.1-3.5-14.6-5.7-21.6-5.7c-13.8,0-23.8,9.1-23.8,23.1c0,13.3,7.4,16.3,18.6,19.5c3.8,1.1,10.9,2.8,10.9,7.9
				c0,4.8-4.5,6.9-8.7,6.9c-6.1,0-11.4-3.2-15.9-7.1L51,377.1c7,4.9,15.5,7.9,24.2,7.9c6.9,0,14.2-1.9,19.6-6.5
				c5.5-4.7,7.1-11.7,7.1-18.6C101.9,348.8,94.5,343.9,84.9,341.1"/>
			<polygon class="st2" points="305.7,383.1 305.7,329.4 320.5,329.4 320.5,314.2 273,314.2 273,314.2 233.9,314.2 233.9,329.4 
				248.7,329.4 248.7,383.1 266.6,383.1 266.6,329.4 281.4,329.4 281.4,329.4 287.8,329.4 287.8,383.1 			"/>
			<rect x="325.4" y="314.2" class="st2" width="17.9" height="68.9"/>
			<polygon class="st2" points="348.7,383.1 387.9,383.1 387.9,368 366.6,368 366.6,356.1 386.8,356.1 386.8,340.9 366.6,340.9 
				366.6,329.4 387.9,329.4 387.9,314.2 348.7,314.2 			"/>
			<path class="st2" d="M432,341.1l-4.6-1.4c-3.1-1-8-2.6-8-6.6c0-3.8,4.4-5.8,7.7-5.8c4.4,0,8.6,1.8,11.9,4.6l7.1-13.9
				c-6.1-3.5-14.6-5.7-21.6-5.7c-13.8,0-23.8,9.1-23.8,23.1c0,13.3,7.4,16.3,18.6,19.5c3.8,1.1,10.9,2.8,10.9,7.9
				c0,4.8-4.5,6.9-8.7,6.9c-6.1,0-11.4-3.2-15.9-7.1l-7.7,14.4c7,4.9,15.5,7.9,24.2,7.9c6.9,0,14.2-1.9,19.6-6.5
				c5.5-4.7,7.1-11.7,7.1-18.6C449,348.8,441.6,343.9,432,341.1"/>
			<path class="st2" d="M166.9,376.6c-4.3-4.8-7.5-10.7-9.2-17.4c-3.5,5.4-9.4,8.8-16.1,8.8c-10.7,0-19.5-8.7-19.5-20.6
				c0-9.5,8.8-18.2,19.5-18.2c6.6,0,12.5,3.3,16,8.1c1.7-6.2,5-11.9,9.4-16.5c-6.9-5.6-15.9-8.9-25.3-8.9
				c-19.8,0-38.1,14.6-38.1,35.5c0,22.3,16,38,38.1,38C151.6,385.4,160.4,382.2,166.9,376.6"/>
			<path class="st2" d="M199.1,311.9c-19.8,0-38.1,14.6-38.1,35.5c0,22.3,16,38,38.1,38s38.1-15.7,38.1-38
				C237.2,326.6,219,311.9,199.1,311.9 M199.1,368.1c-10.7,0-19.5-8.7-19.5-20.6c0-9.5,8.8-18.2,19.5-18.2
				c10.7,0,19.5,8.7,19.5,18.2C218.6,359.4,209.8,368.1,199.1,368.1"/>
			<path class="st2" d="M407.4,308.9c0.3-0.6,0.5-1.1,0.6-1.6c0.1-0.2,0.1-0.4,0.2-0.6c1-5-2.2-9.9-7.2-10.9c-5-1-9.9,2.2-10.9,7.2
				c-0.9,4.6,1.7,9.1,6.1,10.6L394,324l3.1,0.6c0,0,7.4-9.5,10.1-15.4C407.3,309.1,407.4,309,407.4,308.9"/>
			<path class="st2" d="M169.5,422.5l-4.6-1.4c-3.1-1-8-2.6-8-6.6c0-3.8,4.4-5.8,7.7-5.8c4.4,0,8.6,1.8,11.9,4.6l7.1-13.9
				c-6.1-3.5-14.6-5.7-21.6-5.7c-13.8,0-23.8,9.1-23.8,23.1c0,13.3,7.4,16.3,18.6,19.5c3.8,1.1,10.9,2.8,10.9,7.9
				c0,4.8-4.5,6.9-8.7,6.9c-6.1,0-11.4-3.2-15.9-7.1l-7.7,14.4c7,4.9,15.5,7.9,24.2,7.9c6.9,0,14.2-1.9,19.6-6.5
				c5.5-4.7,7.1-11.7,7.1-18.6C186.5,430.2,179.1,425.4,169.5,422.5"/>
			<path class="st2" d="M217.7,395.7h-27.4v68.9h17.9v-22.9h10.1c15.6,0,24.4-7.1,24.4-23.4C242.7,402.5,232.5,395.7,217.7,395.7
				 M211.2,427.3h-3v-17.2h3c6.9,0,12.9,0.1,12.9,8.8C224,427.3,217.7,427.3,211.2,427.3"/>
			<path class="st2" d="M282.1,393.4c-19.8,0-38.1,14.6-38.1,35.5c0,22.3,16,38,38.1,38s38.1-15.7,38.1-38
				C320.2,408,301.9,393.4,282.1,393.4 M282.1,449.5c-10.7,0-19.5-8.7-19.5-20.6c0-9.5,8.8-18.2,19.5-18.2
				c10.7,0,19.5,8.7,19.5,18.2C301.6,440.8,292.8,449.5,282.1,449.5"/>
			<polygon class="st2" points="316.9,410.8 331.7,410.8 331.7,464.6 349.6,464.6 349.6,410.8 364.4,410.8 364.4,395.7 316.9,395.7 
							"/>
			<path class="st2" d="M210.2,134.3c0-6.3-5.4-11.4-12-11.4c-6.6,0-12,5.1-12,11.4c0,6.3,5.4,11.4,12,11.4
				C204.9,145.7,210.2,140.6,210.2,134.3"/>
			<path class="st2" d="M250,33.1c-67.5,0-122.2,54.7-122.2,122.2S182.5,277.6,250,277.6s122.2-54.7,122.2-122.2
				S317.5,33.1,250,33.1 M250,256.1c-55.6,0-100.8-45.1-100.8-100.8c0-55.6,45.1-100.8,100.8-100.8c6.3,0,12.4,0.6,18.4,1.7l-18,32
				c-10.8,19.2-9.7,43.3,2.9,61.3l32.8,47.3H216l17.5-31.8c1.5-2.8,2.4-6,2.5-9.2c0.1-3.9-0.9-7.7-2.8-11.1c-1-1.7-2.2-3.3-3.8-4.6
				c-1.5-1.2-3.3-2-5-3c-1.5-0.8-2.9-1.7-4.4-2.5l-4.5,8l-5.4,9.8l2.6,2.4l0.7,0.6l-1.4,2.5l-7.3,13.2l-9.6,17.4
				c-3.5,6.4-3.4,14,0.3,20.3c3.7,6.3,10.3,10,17.6,10h76.3c7.6,0,14.5-4.2,18.1-10.9c3.5-6.7,3-14.8-1.3-21.1l-34.7-50
				c-7.8-11.2-8.4-26-1.8-37.9l20.4-36.2c35.7,15.5,60.7,51.1,60.7,92.5C350.8,211,305.6,256.1,250,256.1"/>
		</g>
	</g>
</g>
<g>
</g>
<g>
</g>
<g>
</g>
<g>
</g>
<g>
</g>
<g>
</g>
<g>
</g>
<g>
</g>
<g>
</g>
<g>
</g>
<g>
</g>
<g>
</g>
<g>
</g>
<g>
</g>
<g>
</g>
</svg>
