<?xml version="1.0" encoding="utf-8"?>
<!-- Generator: Adobe Illustrator 20.1.0, SVG Export Plug-In . SVG Version: 6.00 Build 0)  -->
<svg version="1.1" id="Layer_1" xmlns="http://www.w3.org/2000/svg" xmlns:xlink="http://www.w3.org/1999/xlink" x="0px" y="0px"
	 viewBox="0 0 207.7 203" style="enable-background:new 0 0 207.7 203;" xml:space="preserve">
<g>
	<path d="M184.8,54.4c5.7-3.2,9.4-9.6,9.4-17.2c0-5.4-2-11.8-6.9-15.8c-5.4-4.2-10.8-4.2-16-4.2h-20.5v39.4h16.8
		C175.5,56.6,180.6,56.6,184.8,54.4z"/>
	<path d="M184.8,128.7c5.7-3.2,9.4-9.6,9.4-17.2c0-5.4-2-11.8-6.9-15.8c-5.4-4.2-10.8-4.2-16-4.2h-20.5v39.4h16.8
		C175.5,130.9,180.6,130.9,184.8,128.7z"/>
	<path d="M179,162.7h-78.5V7.1H30.2C17.6,7.1,7.3,17.4,7.3,30v142.9c0,12.7,10.3,22.9,22.9,22.9h146.3c12.7,0,22.9-10.3,22.9-22.9
		v-10.8C192.6,162.7,185.6,162.7,179,162.7z"/>
</g>
<g>
</g>
<g>
</g>
<g>
</g>
<g>
</g>
<g>
</g>
<g>
</g>
</svg>
